<?xml version="1.0" standalone="no"?><!DOCTYPE svg PUBLIC "-//W3C//DTD SVG 1.1//EN" "http://www.w3.org/Graphics/SVG/1.1/DTD/svg11.dtd"><svg t="1681195111691" class="icon" viewBox="0 0 1024 1024" version="1.1" xmlns="http://www.w3.org/2000/svg" p-id="6100" xmlns:xlink="http://www.w3.org/1999/xlink" width="200" height="200"><path d="M511.3 521.6m-191.1 0a191.1 191.1 0 1 0 382.2 0 191.1 191.1 0 1 0-382.2 0Z" fill="#221714" p-id="6101"></path><path d="M511.3 243.6c-24 0-43.4-19.4-43.4-43.4V148c0-24 19.4-43.4 43.4-43.4s43.4 19.4 43.4 43.4v52.1c0.1 24.1-19.4 43.5-43.4 43.5zM511.3 938.5c-24 0-43.4-19.4-43.4-43.4V843c0-24 19.4-43.4 43.4-43.4s43.4 19.4 43.4 43.4v52.1c0.1 24-19.4 43.4-43.4 43.4zM314.8 325c-17 17-44.5 17-61.4 0l-36.9-36.9c-17-17-17-44.5 0-61.4s44.5-17 61.4 0l36.9 36.9c16.9 17 16.9 44.5 0 61.4zM806.2 816.4c-17 17-44.5 17-61.4 0l-36.9-36.9c-17-17-17-44.5 0-61.4 17-17 44.5-17 61.4 0l36.9 36.9c16.9 17 16.9 44.5 0 61.4zM314.8 718.1c17 17 17 44.5 0 61.4l-36.9 36.9c-17 17-44.5 17-61.4 0-17-17-17-44.5 0-61.4l36.9-36.9c16.9-16.9 44.4-16.9 61.4 0zM806.2 226.7c17 17 17 44.5 0 61.4L769.3 325c-17 17-44.5 17-61.4 0-17-17-17-44.5 0-61.4l36.9-36.9c16.9-16.9 44.4-16.9 61.4 0zM233.4 521.6c0 24-19.4 43.4-43.4 43.4h-52.1c-24 0-43.4-19.4-43.4-43.4s19.4-43.4 43.4-43.4H190c23.9-0.1 43.4 19.4 43.4 43.4zM928.3 521.6c0 24-19.4 43.4-43.4 43.4h-52.1c-24 0-43.4-19.4-43.4-43.4s19.4-43.4 43.4-43.4h52.1c24-0.1 43.4 19.4 43.4 43.4z" fill="#221714" p-id="6102"></path></svg>